<?xml version="1.0" encoding="UTF-8"?>
<svg width="54px" height="44px" viewBox="0 0 54 44" version="1.1" xmlns="http://www.w3.org/2000/svg" xmlns:xlink="http://www.w3.org/1999/xlink">
    <title>Combined Shape Copy 2</title>
    <g id="Page-1" stroke="none" stroke-width="1" fill="none" fill-rule="evenodd">
        <g id="Logo" transform="translate(-65.000000, -79.000000)" fill="#FFFFFF">
            <path d="M110.851724,79 L110.851724,88.3642565 L118.941379,88.3642565 L118.941379,96.1077763 L110.793103,96.1077763 L110.793103,109.974079 C110.793103,111.354707 110.851724,112.255116 110.910345,112.855389 C110.968965,113.395634 111.203448,113.875853 111.613793,114.296044 C112.024138,114.716235 112.668966,114.896317 113.548276,114.896317 L118.589655,114.776262 L119,121.979536 C116.068965,122.639836 113.782759,123 112.258621,123 C108.272414,123 105.575862,122.099591 104.168966,120.238745 C102.703448,118.437926 102,115.076399 102,110.154161 L102,79 L110.851724,79 Z M93,89 L93,122 L84,122 L84,89 L93,89 Z M70.5,87 C72.0888889,87 73.4333334,87.535135 74.4722223,88.6054054 C75.5111111,89.6756757 76,90.9837837 76,92.5891893 C76,94.1945946 75.5111111,95.4432433 74.4722223,96.5135136 C73.4944443,97.464865 72.2111111,98 70.5611111,98 C68.9722223,98 67.6277777,97.464865 66.5888889,96.3945946 C65.55,95.3243243 65,94.0162163 65,92.4702703 C65,90.9243243 65.55,89.6162163 66.5277777,88.545946 C67.5666666,87.4756757 68.9111111,87 70.5,87 Z" id="Combined-Shape-Copy-2"></path>
        </g>
    </g>
</svg>