<?xml version="1.0" encoding="UTF-8"?>
<svg width="50px" height="48px" viewBox="0 0 50 48" version="1.1" xmlns="http://www.w3.org/2000/svg" xmlns:xlink="http://www.w3.org/1999/xlink">
    <title>Group 23</title>
    <g id="Page-1" stroke="none" stroke-width="1" fill="none" fill-rule="evenodd">
        <g id="Logo" transform="translate(-132.000000, -77.000000)">
            <g id="Group-23" transform="translate(134.000000, 77.000000)">
                <g id="Group-22" transform="translate(0.000000, 5.000000)">
                    <circle id="Oval-Copy-5" fill="#FFFFFF" cx="19.75" cy="20.75" r="6"></circle>
                    <circle id="Oval" fill="#FFFFFF" cx="18.75" cy="21.5" r="12"></circle>
                    <circle id="Oval" stroke="#FFFFFF" stroke-width="4" cx="18.75" cy="21.5" r="18.75"></circle>
                    <line x1="27" y1="16.25" x2="42.375" y2="0.875" id="Line-5" stroke="#FFFFFF" stroke-width="4" stroke-linecap="round" stroke-linejoin="round"></line>
                    <line x1="18.125" y1="24.875" x2="27" y2="16" id="Line-5" stroke="#0066CC" stroke-width="4" stroke-linecap="round" stroke-linejoin="round"></line>
                    <line x1="18.125" y1="24.875" x2="13.375" y2="20.125" id="Line-6" stroke="#0066CC" stroke-width="4" stroke-linecap="round" stroke-linejoin="round"></line>
                </g>
                <path d="M42.5611111,11 C40.9722223,11 39.6277777,10.464865 38.5888889,9.39459464 C37.55,8.32432433 37,7.0162163 37,5.47027031 C37,3.92432433 37.55,2.6162163 38.5277777,1.54594598 C39.5666666,0.47567567 40.9111111,0 42.5,0 C44.0888889,0 45.4333334,0.535135043 46.4722223,1.60540536 C47.5111111,2.67567567 48,3.9837837 48,5.58918929 C48,7.19459464 47.5111111,8.4432433 46.4722223,9.51351362 C45.4944443,10.464865 44.2111111,11 42.5611111,11 Z" id="Path" fill="#FFFFFF"></path>
            </g>
        </g>
    </g>
</svg>